<?xml version="1.0" standalone="no"?>
<!DOCTYPE svg PUBLIC "-//W3C//DTD SVG 20010904//EN"
 "http://www.w3.org/TR/2001/REC-SVG-20010904/DTD/svg10.dtd">
<svg version="1.0" xmlns="http://www.w3.org/2000/svg"
 width="768.000000pt" height="768.000000pt" viewBox="0 0 768.000000 768.000000"
 preserveAspectRatio="xMidYMid meet">

<g transform="translate(0.000000,768.000000) scale(0.100000,-0.100000)"
fill="#000000" stroke="none">
<path d="M2975 5583 c-121 -6 -363 -45 -495 -79 -161 -42 -321 -93 -335 -105
-5 -5 -17 -9 -27 -9 -9 0 -32 -6 -50 -14 -18 -8 -58 -25 -88 -38 -136 -56
-577 -286 -620 -323 -8 -7 -64 -45 -125 -86 -277 -184 -589 -442 -845 -699
-171 -172 -337 -361 -353 -402 -3 -10 -13 -18 -22 -18 -19 0 -20 -39 -1 -54 8
-6 53 -56 101 -111 131 -149 392 -403 534 -517 130 -105 412 -312 517 -378
328 -209 719 -403 964 -480 14 -5 77 -25 140 -45 140 -44 287 -76 485 -106
183 -27 560 -33 740 -10 568 69 1169 306 1705 670 269 183 412 294 662 519 88
78 163 142 166 142 18 -1 277 -204 459 -358 257 -219 499 -461 725 -724 61
-71 113 -128 117 -128 4 0 62 62 129 138 179 201 199 222 211 222 32 0 -2 49
-126 180 -192 203 -555 563 -633 626 -36 30 -95 80 -131 111 -36 32 -127 109
-202 171 -75 62 -137 116 -137 119 0 7 8 14 111 91 159 121 341 276 588 502
132 120 441 459 495 542 10 16 23 25 32 21 10 -4 14 2 14 20 0 14 -6 27 -13
29 -8 2 -41 36 -74 75 -94 113 -250 273 -265 273 -7 -1 -25 -17 -39 -38 -77
-110 -507 -550 -764 -781 -66 -60 -383 -308 -469 -369 l-34 -23 -148 149
c-135 135 -363 334 -500 437 -263 198 -384 278 -634 418 -352 198 -805 364
-1110 407 -47 6 -114 16 -150 22 -64 9 -387 16 -505 11z m409 -494 c225 -27
442 -79 651 -155 131 -49 466 -211 561 -271 75 -48 93 -59 127 -78 91 -51 443
-314 548 -409 31 -28 89 -80 129 -116 125 -111 260 -248 260 -265 0 -9 -37
-51 -82 -93 -88 -84 -389 -336 -418 -352 -10 -5 -55 -38 -101 -72 -359 -270
-821 -499 -1229 -607 -96 -26 -144 -37 -270 -62 -149 -29 -495 -40 -643 -19
-40 6 -106 15 -147 21 -74 11 -263 54 -370 85 -212 61 -544 212 -785 355 -200
120 -405 258 -502 338 -17 14 -59 49 -93 76 -119 96 -325 277 -349 307 l-25
31 80 74 c43 41 115 107 159 146 44 38 118 105 165 148 152 139 408 326 622
455 451 272 810 407 1208 455 52 6 97 13 99 15 9 9 319 3 405 -7z"/>
<path d="M1556 4300 c-90 -35 -153 -115 -167 -214 -23 -162 95 -296 261 -296
68 0 113 15 165 57 82 65 117 162 95 260 -36 165 -199 253 -354 193z"/>
</g>
</svg>
